<?xml version="1.0" encoding="UTF-8"?> <svg xmlns="http://www.w3.org/2000/svg" width="160" height="53" viewBox="0 0 160 53" fill="none"><g clip-path="url(#clip0_105_110786)"><path d="M52.3328 26.0314V16.742C52.3328 15.3208 53.866 14.4325 55.0926 15.1432C55.6618 15.4729 56.0128 16.0823 56.0128 16.742V33.4941C55.9982 40.6881 48.2274 45.1692 42.0249 41.5595C35.8223 37.95 35.8405 28.9569 42.0572 25.3721C45.3032 23.5002 49.351 23.7607 52.3328 26.033V26.0314ZM52.3328 33.4923V33.4532C52.3178 29.0741 47.5839 26.3536 43.8118 28.556C40.0393 30.7585 40.0579 36.2321 43.8451 38.4088C47.6172 40.5768 52.3178 37.8539 52.3328 33.4923Z" fill="white"></path><path d="M76.6471 33.7144V41.0272C76.683 42.0724 75.8291 42.9291 74.7876 42.8926C74.0443 42.8926 73.0036 42.108 73.0036 41.0272C71.4046 42.369 69.6206 42.8926 67.5012 42.8926C62.2587 42.8926 58.0954 38.9745 58.0954 33.7144C58.0618 28.4884 62.2926 24.2435 67.5012 24.2771C72.7437 24.2771 76.6471 28.4561 76.6471 33.7144ZM73.0036 33.7144C73.0036 30.5812 70.6243 27.9323 67.5012 27.9323C64.3783 27.9323 61.7422 30.5812 61.7422 33.7144C61.7422 36.8482 64.3783 39.2355 67.5048 39.2355C70.6314 39.2355 73.0036 36.8497 73.0036 33.7144Z" fill="white"></path><path d="M97.4656 33.7144V41.0272C97.5018 42.0715 96.6486 42.9282 95.6079 42.8926C94.8644 42.8926 93.8223 42.108 93.8223 41.0272C92.2249 42.369 90.4392 42.8926 88.32 42.8926C83.0791 42.8926 78.9138 38.9745 78.9138 33.7144C78.8814 28.4888 83.1117 24.2445 88.32 24.277C93.5622 24.277 97.4656 28.4561 97.4656 33.7144ZM93.8223 33.7144C93.8223 30.5812 91.4427 27.9323 88.32 27.9323C85.1968 27.9323 82.5572 30.5776 82.5572 33.7144C82.5572 36.8515 85.1933 39.2355 88.32 39.2355C91.4463 39.2355 93.8223 36.8497 93.8223 33.7144Z" fill="white"></path><path d="M103.414 41.1753V50.4648C103.414 51.886 101.881 52.7742 100.654 52.0635C100.085 51.7338 99.7344 51.1244 99.7344 50.4648V33.7128C99.7487 26.5188 107.52 22.0378 113.722 25.6474C119.925 29.2567 119.907 38.25 113.69 41.8346C110.444 43.7066 106.396 43.4461 103.414 41.1736V41.1753ZM103.414 33.7145V33.7536C103.429 38.1326 108.163 40.8532 111.935 38.6507C115.708 36.4484 115.689 30.9743 111.902 28.7979C108.13 26.6299 103.429 29.3528 103.414 33.7145Z" fill="white"></path><path d="M124.27 41.1753V50.4648C124.27 51.886 122.736 52.7742 121.51 52.0635C120.94 51.7338 120.59 51.1244 120.59 50.4648V33.7128C120.604 26.5188 128.375 22.0378 134.577 25.6474C140.78 29.2567 140.762 38.25 134.545 41.8346C131.299 43.7066 127.251 43.4461 124.27 41.1736V41.1753ZM124.27 33.7145V33.7536C124.285 38.1326 129.019 40.8532 132.791 38.6507C136.563 36.4484 136.544 30.9743 132.757 28.7979C128.985 26.6299 124.285 29.3528 124.27 33.7145Z" fill="white"></path><path d="M159.999 33.7143V41.0272C160.035 42.0723 159.181 42.9291 158.14 42.8926C157.396 42.8926 156.354 42.1079 156.354 41.0272C154.756 42.3689 152.971 42.8926 150.851 42.8926C145.611 42.8926 141.445 38.9745 141.445 33.7143C141.413 28.4917 145.639 24.2483 150.844 24.277C156.094 24.277 159.999 28.4561 159.999 33.7143ZM156.354 33.7143C156.354 30.5811 153.976 27.9323 150.851 27.9323C147.726 27.9323 145.091 30.5775 145.091 33.7143C145.091 36.8514 147.726 39.2354 150.851 39.2354C153.976 39.2354 156.354 36.8497 156.354 33.7143Z" fill="white"></path><path d="M18.459 1.67212C18.459 -0.465685 20.2521 -0.250022 20.943 0.643024C20.9849 0.694407 21.0302 0.74275 21.0786 0.787764L32.2179 11.5492C32.5138 11.8394 32.6803 12.2371 32.6796 12.6521C32.6868 14.2153 32.6796 17.7846 32.6796 18.1956V35.0723C32.6796 35.8988 32.0535 36.5689 31.2803 36.5689H18.459" fill="white"></path><path d="M32.6839 19.4258H18.459V37.3837H32.6839V19.4258Z" fill="white"></path><path d="M32.6837 36.4388C32.7558 34.259 32.6736 30.8591 32.6837 25.2461C32.4081 34.204 24.6631 36.2015 19.8292 36.572H1.2479e-06C-0.00475914 49.1949 13.6111 57.0893 24.5085 50.782C28.5752 48.4284 31.4366 44.4335 32.3634 39.8156C32.576 38.7496 32.6828 37.6651 32.6822 36.5778L32.6837 36.4388Z" fill="white"></path><path d="M8.59764 22.2139C3.51557 24.7584 0.0693359 29.7056 0.0693359 35.3852H16.1739L8.59764 22.2139Z" fill="white"></path><path d="M9.57129 21.6577L17.1432 34.816L17.2456 19.9078C14.5883 19.8995 11.964 20.4979 9.57129 21.6577Z" fill="white"></path></g><defs><clipPath id="clip0_105_110786"><rect width="160" height="53" fill="white"></rect></clipPath></defs></svg> 